<svg width="186" height="126" viewBox="0 0 186 126" fill="none" xmlns="http://www.w3.org/2000/svg">
<g clip-path="url(#clip0_9546_1367)">
<path d="M166.245 123.011C162.089 126.005 156.703 126.155 151.497 125.787C150.77 125.736 150.048 125.676 149.333 125.611C149.329 125.61 149.323 125.61 149.318 125.609C149.284 125.606 149.25 125.602 149.217 125.6C149.069 125.587 148.922 125.573 148.775 125.559L148.81 125.625L148.918 125.829C148.879 125.761 148.84 125.694 148.801 125.625C148.79 125.605 148.777 125.584 148.766 125.564C147.417 123.217 146.079 120.784 145.738 118.104C145.385 115.322 146.377 112.172 148.825 110.805C149.146 110.626 149.486 110.484 149.839 110.38C149.985 110.336 150.133 110.3 150.284 110.268C151.202 110.064 152.158 110.108 153.053 110.396C153.948 110.684 154.751 111.206 155.378 111.907C156.005 112.608 156.434 113.463 156.621 114.385C156.808 115.307 156.746 116.262 156.442 117.151C158.517 115.023 158.13 111.57 157.414 108.685C156.697 105.799 155.828 102.588 157.287 99.9962C158.098 98.5536 159.525 97.6585 161.125 97.2979C161.174 97.2873 161.224 97.2768 161.273 97.2676C163.18 96.8813 165.163 97.2287 166.825 98.2404C169.886 100.169 171.458 103.826 171.968 107.408C172.79 113.173 170.971 119.606 166.245 123.011Z" fill="#F2F2F2"/>
<path d="M164.903 113.77C164.783 115.041 164.477 116.289 163.997 117.472C163.554 118.519 162.957 119.494 162.226 120.365C160.705 122.144 158.78 123.533 156.612 124.413C154.971 125.085 153.253 125.546 151.497 125.787C150.77 125.736 150.048 125.676 149.333 125.611C149.328 125.61 149.323 125.61 149.318 125.609C149.284 125.606 149.25 125.602 149.217 125.601C149.069 125.587 148.921 125.573 148.775 125.559L148.81 125.625L148.918 125.829C148.879 125.761 148.84 125.694 148.801 125.625C148.79 125.605 148.777 125.584 148.766 125.564C150.082 124.252 151.065 122.644 151.632 120.874C152.199 119.105 152.334 117.225 152.024 115.392C151.701 113.573 150.952 111.856 149.839 110.38C149.985 110.336 150.133 110.3 150.283 110.268C150.707 110.846 151.078 111.461 151.393 112.105C152.522 114.401 152.883 117 152.42 119.517C151.991 121.794 150.92 123.902 149.334 125.592C149.473 125.582 149.613 125.571 149.751 125.559C152.349 125.338 154.943 124.78 157.3 123.635C159.315 122.681 161.064 121.246 162.394 119.456C163.821 117.487 164.45 115.119 164.558 112.712C164.641 110.119 164.37 107.527 163.75 105.007C163.15 102.438 162.237 99.9522 161.033 97.6049C161.006 97.5517 161.001 97.4901 161.018 97.433C161.035 97.3758 161.073 97.3275 161.125 97.2979C161.169 97.2688 161.221 97.2579 161.273 97.2676C161.298 97.2742 161.321 97.2864 161.341 97.3033C161.36 97.3202 161.376 97.3412 161.386 97.365C161.535 97.655 161.681 97.9451 161.821 98.2385C162.989 100.683 163.849 103.262 164.381 105.918C164.898 108.48 165.174 111.161 164.903 113.77Z" fill="white"/>
<path d="M7.73148 40.0489C7.60774 40.0488 7.48511 40.0256 7.36985 39.9806C7.18346 39.909 7.02326 39.7824 6.91054 39.6176C6.79782 39.4527 6.7379 39.2575 6.73875 39.0579V28.7155C6.73836 28.3654 6.59912 28.0298 6.35159 27.7822C6.10405 27.5347 5.76844 27.3954 5.41836 27.395H3.30047C2.42543 27.3941 1.58652 27.046 0.96777 26.4273C0.349023 25.8085 0.000980701 24.9696 0 24.0946V3.30071C0.000981283 2.42568 0.349023 1.58676 0.96777 0.968014C1.58652 0.349268 2.42543 0.00122484 3.30047 0.000244141H78.0045C78.8795 0.001226 79.7184 0.349268 80.3372 0.968014C80.9559 1.58676 81.304 2.42568 81.3049 3.30071V24.0946C81.304 24.9696 80.9559 25.8085 80.3372 26.4273C79.7184 27.046 78.8795 27.3941 78.0045 27.395H20.3436C20.1606 27.3952 19.9796 27.4334 19.812 27.5071C19.6445 27.5808 19.4941 27.6884 19.3702 27.8232L8.45864 39.7269C8.3665 39.8282 8.25424 39.9092 8.12903 39.9646C8.00382 40.02 7.86841 40.0488 7.73148 40.0489ZM3.30047 0.440035C2.54204 0.440891 1.81491 0.742559 1.27861 1.27886C0.742315 1.81515 0.440647 2.54228 0.439791 3.30071V24.0946C0.440648 24.853 0.742315 25.5801 1.27861 26.1164C1.81491 26.6527 2.54204 26.9544 3.30047 26.9552H5.41836C5.88503 26.9558 6.33245 27.1414 6.66243 27.4714C6.99242 27.8014 7.17803 28.2488 7.17854 28.7155V39.0579C7.17855 39.1687 7.21204 39.277 7.27464 39.3685C7.33724 39.46 7.42602 39.5305 7.52934 39.5707C7.63267 39.6109 7.74573 39.6189 7.85371 39.5938C7.96168 39.5686 8.05954 39.5114 8.13446 39.4297L19.0461 27.526C19.2111 27.3464 19.4117 27.2029 19.635 27.1046C19.8583 27.0064 20.0996 26.9555 20.3436 26.9552H78.0045C78.7629 26.9544 79.49 26.6527 80.0263 26.1164C80.5626 25.5801 80.8643 24.853 80.8652 24.0946V3.30071C80.8643 2.54228 80.5626 1.81515 80.0263 1.27886C79.49 0.742559 78.7629 0.440891 78.0045 0.440035H3.30047Z" fill="#CCCCCC"/>
<path d="M8.09605 9.36544C9.69107 9.36544 10.9841 8.07242 10.9841 6.4774C10.9841 4.88238 9.69107 3.58936 8.09605 3.58936C6.50103 3.58936 5.20801 4.88238 5.20801 6.4774C5.20801 8.07242 6.50103 9.36544 8.09605 9.36544Z" fill="#CCCCCC"/>
<path d="M74.6353 22.4578H6.67006C6.46763 22.458 6.26714 22.4184 6.08005 22.3411C5.89296 22.2638 5.72295 22.1503 5.57972 22.0073C5.4365 21.8642 5.32287 21.6944 5.24535 21.5074C5.16783 21.3204 5.12793 21.1199 5.12793 20.9175C5.12793 20.7151 5.16783 20.5146 5.24535 20.3276C5.32287 20.1406 5.4365 19.9707 5.57972 19.8277C5.72295 19.6846 5.89296 19.5712 6.08005 19.4939C6.26714 19.4166 6.46763 19.377 6.67006 19.3772H74.6353C74.8377 19.377 75.0382 19.4166 75.2253 19.4939C75.4124 19.5712 75.5824 19.6846 75.7256 19.8277C75.8688 19.9707 75.9825 20.1406 76.06 20.3276C76.1375 20.5146 76.1774 20.7151 76.1774 20.9175C76.1774 21.1199 76.1375 21.3204 76.06 21.5074C75.9825 21.6944 75.8688 21.8642 75.7256 22.0073C75.5824 22.1503 75.4124 22.2638 75.2253 22.3411C75.0382 22.4184 74.8377 22.458 74.6353 22.4578Z" fill="#CCCCCC"/>
<path d="M52.4936 15.9114H6.67006C6.46763 15.9116 6.26714 15.872 6.08005 15.7947C5.89296 15.7174 5.72295 15.604 5.57972 15.4609C5.4365 15.3178 5.32287 15.148 5.24535 14.961C5.16783 14.774 5.12793 14.5735 5.12793 14.3711C5.12793 14.1687 5.16783 13.9682 5.24535 13.7812C5.32287 13.5942 5.4365 13.4244 5.57972 13.2813C5.72295 13.1382 5.89296 13.0248 6.08005 12.9475C6.26714 12.8702 6.46763 12.8306 6.67006 12.8308H52.4936C52.6961 12.8306 52.8966 12.8702 53.0836 12.9475C53.2707 13.0248 53.4408 13.1382 53.584 13.2813C53.7272 13.4244 53.8408 13.5942 53.9183 13.7812C53.9959 13.9682 54.0358 14.1687 54.0358 14.3711C54.0358 14.5735 53.9959 14.774 53.9183 14.961C53.8408 15.148 53.7272 15.3178 53.584 15.4609C53.4408 15.604 53.2707 15.7174 53.0836 15.7947C52.8966 15.872 52.6961 15.9116 52.4936 15.9114Z" fill="#CCCCCC"/>
<path d="M7.73148 113.405C7.60774 113.405 7.48511 113.382 7.36985 113.337C7.18347 113.265 7.02328 113.138 6.91056 112.973C6.79783 112.809 6.73792 112.613 6.73875 112.414V102.071C6.73836 101.721 6.59912 101.386 6.35159 101.138C6.10405 100.891 5.76844 100.751 5.41836 100.751H3.30047C2.42544 100.75 1.58652 100.402 0.967773 99.7832C0.349027 99.1645 0.000983029 98.3256 0 97.4505V76.6567C0.000981282 75.7816 0.349024 74.9427 0.96777 74.324C1.58652 73.7052 2.42544 73.3572 3.30047 73.3562H78.0045C78.8795 73.3572 79.7184 73.7052 80.3372 74.324C80.9559 74.9427 81.304 75.7816 81.3049 76.6567V97.4505C81.304 98.3256 80.9559 99.1645 80.3372 99.7832C79.7184 100.402 78.8795 100.75 78.0045 100.751H20.3436C20.1606 100.751 19.9796 100.789 19.812 100.863C19.6445 100.937 19.4941 101.044 19.3702 101.179L8.45864 113.083C8.3665 113.184 8.25424 113.265 8.12903 113.321C8.00382 113.376 7.86841 113.405 7.73148 113.405ZM3.30047 73.796C2.54204 73.7968 1.81491 74.0985 1.27861 74.6348C0.742315 75.1711 0.440646 75.8982 0.439791 76.6567V97.4505C0.440647 98.209 0.742315 98.9361 1.27861 99.4724C1.81491 100.009 2.54204 100.31 3.30047 100.311H5.41836C5.88503 100.312 6.33245 100.497 6.66243 100.827C6.99242 101.157 7.17803 101.605 7.17854 102.071V112.414C7.17855 112.525 7.21204 112.633 7.27464 112.724C7.33724 112.816 7.42602 112.886 7.52934 112.927C7.63267 112.967 7.74573 112.975 7.85371 112.95C7.96168 112.925 8.05954 112.867 8.13446 112.786L19.0461 100.882C19.2111 100.702 19.4117 100.559 19.635 100.461C19.8583 100.362 20.0996 100.311 20.3436 100.311H78.0045C78.7629 100.31 79.49 100.009 80.0263 99.4724C80.5626 98.9361 80.8643 98.209 80.8652 97.4505V76.6567C80.8643 75.8982 80.5626 75.1711 80.0263 74.6348C79.49 74.0985 78.7629 73.7968 78.0045 73.796L3.30047 73.796Z" fill="#CCCCCC"/>
<path d="M118.048 75.2828C117.911 75.2826 117.776 75.2539 117.65 75.1985C117.525 75.143 117.413 75.0621 117.321 74.9608L106.409 63.0571C106.285 62.9223 106.135 62.8147 105.967 62.741C105.8 62.6673 105.619 62.6291 105.436 62.6289H47.7751C46.9 62.6279 46.0611 62.2799 45.4424 61.6611C44.8236 61.0424 44.4756 60.2035 44.4746 59.3284V38.5346C44.4756 37.6596 44.8236 36.8206 45.4424 36.2019C46.0611 35.5832 46.9 35.2351 47.7751 35.2341H122.479C123.354 35.2351 124.193 35.5832 124.812 36.2019C125.43 36.8206 125.779 37.6596 125.78 38.5346V59.3284C125.779 60.2035 125.43 61.0424 124.812 61.6612C124.193 62.2799 123.354 62.6279 122.479 62.6289H120.361C120.011 62.6293 119.675 62.7686 119.428 63.0161C119.18 63.2637 119.041 63.5993 119.041 63.9494V74.2917C119.042 74.4914 118.982 74.6866 118.869 74.8514C118.756 75.0162 118.596 75.1428 118.41 75.2144C118.294 75.2595 118.172 75.2827 118.048 75.2828ZM47.7751 35.6739C47.0166 35.6748 46.2895 35.9764 45.7532 36.5127C45.2169 37.049 44.9153 37.7762 44.9144 38.5346V59.3284C44.9152 60.0869 45.2169 60.814 45.7532 61.3503C46.2895 61.8866 47.0166 62.1883 47.7751 62.1891H105.436C105.68 62.1894 105.921 62.2403 106.145 62.3385C106.368 62.4367 106.568 62.5802 106.733 62.7599L117.645 74.6636C117.72 74.7453 117.818 74.8025 117.926 74.8276C118.034 74.8528 118.147 74.8447 118.25 74.8046C118.354 74.7644 118.442 74.6939 118.505 74.6024C118.567 74.5109 118.601 74.4026 118.601 74.2917V63.9494C118.601 63.4827 118.787 63.0353 119.117 62.7053C119.447 62.3753 119.894 62.1897 120.361 62.1891H122.479C123.237 62.1883 123.965 61.8866 124.501 61.3503C125.037 60.814 125.339 60.0869 125.34 59.3284V38.5346C125.339 37.7762 125.037 37.049 124.501 36.5127C123.965 35.9764 123.237 35.6748 122.479 35.6739L47.7751 35.6739Z" fill="#3F3D56"/>
<path d="M8.09605 82.7216C9.69107 82.7216 10.9841 81.4286 10.9841 79.8336C10.9841 78.2386 9.69107 76.9456 8.09605 76.9456C6.50103 76.9456 5.20801 78.2386 5.20801 79.8336C5.20801 81.4286 6.50103 82.7216 8.09605 82.7216Z" fill="#CCCCCC"/>
<path d="M74.6353 95.814H6.67006C6.46763 95.8142 6.26714 95.7746 6.08005 95.6973C5.89296 95.62 5.72295 95.5065 5.57972 95.3635C5.4365 95.2204 5.32287 95.0506 5.24535 94.8636C5.16783 94.6766 5.12793 94.4761 5.12793 94.2737C5.12793 94.0713 5.16783 93.8708 5.24535 93.6838C5.32287 93.4968 5.4365 93.3269 5.57972 93.1839C5.72295 93.0408 5.89296 92.9274 6.08005 92.8501C6.26714 92.7728 6.46763 92.7332 6.67006 92.7334H74.6353C75.0438 92.7334 75.4356 92.8957 75.7244 93.1845C76.0133 93.4734 76.1756 93.8652 76.1756 94.2737C76.1756 94.6822 76.0133 95.074 75.7244 95.3628C75.4356 95.6517 75.0438 95.814 74.6353 95.814Z" fill="#CCCCCC"/>
<path d="M52.4936 89.2678H6.67006C6.46763 89.2681 6.26714 89.2284 6.08005 89.1511C5.89296 89.0738 5.72295 88.9604 5.57972 88.8173C5.4365 88.6743 5.32287 88.5044 5.24535 88.3174C5.16783 88.1304 5.12793 87.93 5.12793 87.7275C5.12793 87.5251 5.16783 87.3247 5.24535 87.1377C5.32287 86.9507 5.4365 86.7808 5.57972 86.6377C5.72295 86.4947 5.89296 86.3813 6.08005 86.304C6.26714 86.2267 6.46763 86.187 6.67006 86.1873H52.4936C52.6961 86.187 52.8966 86.2267 53.0836 86.304C53.2707 86.3813 53.4408 86.4947 53.584 86.6377C53.7272 86.7808 53.8408 86.9507 53.9183 87.1377C53.9959 87.3247 54.0358 87.5251 54.0358 87.7275C54.0358 87.93 53.9959 88.1304 53.9183 88.3174C53.8408 88.5044 53.7272 88.6743 53.584 88.8173C53.4408 88.9604 53.2707 89.0738 53.0836 89.1511C52.8966 89.2284 52.6961 89.2681 52.4936 89.2678Z" fill="#CCCCCC"/>
<path d="M52.5716 44.4069C54.1667 44.4069 55.4597 43.1139 55.4597 41.5189C55.4597 39.9239 54.1667 38.6309 52.5716 38.6309C50.9766 38.6309 49.6836 39.9239 49.6836 41.5189C49.6836 43.1139 50.9766 44.4069 52.5716 44.4069Z" fill="#3F3D56"/>
<path d="M119.111 57.4993H51.1458C50.7372 57.4993 50.3455 57.337 50.0566 57.0481C49.7677 56.7593 49.6055 56.3675 49.6055 55.959C49.6055 55.5505 49.7677 55.1587 50.0566 54.8698C50.3455 54.581 50.7372 54.4187 51.1458 54.4187H119.111C119.519 54.4187 119.911 54.581 120.2 54.8698C120.489 55.1587 120.651 55.5505 120.651 55.959C120.651 56.3675 120.489 56.7593 120.2 57.0481C119.911 57.337 119.519 57.4993 119.111 57.4993Z" fill="#6C63FF"/>
<path d="M96.9692 50.9531H51.1456C50.9432 50.9534 50.7427 50.9137 50.5556 50.8364C50.3685 50.7591 50.1985 50.6457 50.0553 50.5026C49.9121 50.3596 49.7985 50.1897 49.7209 50.0027C49.6434 49.8157 49.6035 49.6153 49.6035 49.4128C49.6035 49.2104 49.6434 49.01 49.7209 48.823C49.7985 48.636 49.9121 48.4661 50.0553 48.323C50.1985 48.18 50.3685 48.0666 50.5556 47.9893C50.7427 47.912 50.9432 47.8723 51.1456 47.8726H96.9692C97.1716 47.8723 97.3721 47.912 97.5592 47.9893C97.7463 48.0666 97.9163 48.18 98.0596 48.323C98.2028 48.4661 98.3164 48.636 98.3939 48.823C98.4714 49.01 98.5114 49.2104 98.5114 49.4128C98.5114 49.6153 98.4714 49.8157 98.3939 50.0027C98.3164 50.1897 98.2028 50.3596 98.0596 50.5026C97.9163 50.6457 97.7463 50.7591 97.5592 50.8364C97.3721 50.9137 97.1716 50.9534 96.9692 50.9531Z" fill="#6C63FF"/>
<path d="M119.081 79.2412C119.147 78.9247 119.282 78.6266 119.475 78.3678C119.669 78.109 119.917 77.8958 120.202 77.7432C120.487 77.5906 120.802 77.5024 121.125 77.4847C121.448 77.4671 121.77 77.5204 122.07 77.6409L127.229 71.7134L128.325 75.647L123.258 80.6729C123.022 81.1633 122.614 81.5502 122.112 81.7602C121.61 81.9702 121.048 81.9887 120.534 81.8123C120.019 81.6358 119.587 81.2766 119.319 80.8027C119.051 80.3289 118.967 79.7733 119.081 79.2412Z" fill="#FFB8B8"/>
<path d="M147.393 51.425C150.376 51.425 152.794 49.007 152.794 46.0241C152.794 43.0413 150.376 40.6233 147.393 40.6233C144.41 40.6233 141.992 43.0413 141.992 46.0241C141.992 49.007 144.41 51.425 147.393 51.425Z" fill="#FFB8B8"/>
<path d="M141.049 120.365L138.353 120.364L137.07 109.966L141.049 109.966L141.049 120.365Z" fill="#FFB8B8"/>
<path d="M141.737 122.978L133.044 122.978V122.868C133.044 122.423 133.131 121.983 133.301 121.573C133.472 121.162 133.721 120.789 134.035 120.475C134.349 120.161 134.722 119.912 135.133 119.742C135.543 119.572 135.983 119.484 136.427 119.484L141.737 119.485L141.737 122.978Z" fill="#2F2E41"/>
<path d="M149.184 123.223L146.489 123.223L146.115 113.073L149.185 112.825L149.184 123.223Z" fill="#FFB8B8"/>
<path d="M149.872 125.837L141.18 125.836V125.726C141.18 125.282 141.267 124.842 141.437 124.432C141.607 124.021 141.856 123.648 142.171 123.334C142.485 123.02 142.858 122.771 143.268 122.601C143.679 122.431 144.119 122.343 144.563 122.343L149.872 122.343L149.872 125.837Z" fill="#2F2E41"/>
<path d="M148.417 121.326L146.318 121.079C146.08 121.05 145.86 120.936 145.7 120.758C145.539 120.58 145.448 120.35 145.444 120.11L145.051 92.7687C145.05 92.6913 145.021 92.6168 144.971 92.5582C144.92 92.4996 144.851 92.4606 144.775 92.4481C144.698 92.4355 144.62 92.4502 144.553 92.4896C144.487 92.529 144.436 92.5905 144.41 92.6635L141.498 100.887L141.706 116.302C141.709 116.557 141.615 116.803 141.442 116.989C141.268 117.176 141.03 117.288 140.776 117.304L138.035 117.42C137.785 117.434 137.538 117.353 137.344 117.193C137.151 117.033 137.025 116.806 136.992 116.557L135.56 99.119L135.56 99.1081L137.732 80.8965L154.044 82.0767L149.516 120.459C149.487 120.7 149.371 120.921 149.19 121.082C149.009 121.243 148.776 121.332 148.534 121.333C148.495 121.333 148.456 121.33 148.417 121.326Z" fill="#2F2E41"/>
<path d="M137.801 82.5108C137.655 82.4327 137.53 82.3187 137.44 82.1796C137.349 82.0405 137.295 81.8807 137.283 81.7152C137.283 81.7152 138.75 72.593 139.288 72.4218L138.112 62.6665C137.971 61.4767 138.069 60.2708 138.4 59.1194C138.732 57.9681 139.29 56.8946 140.042 55.9619C140.767 55.0571 141.667 54.3084 142.688 53.761C143.71 53.2137 144.832 52.879 145.986 52.7773C146.151 52.7625 146.314 52.7511 146.477 52.7433C147.869 52.6688 149.258 52.9314 150.526 53.5088C151.795 54.0862 152.905 54.9613 153.763 56.0598C154.653 57.1677 155.262 58.4742 155.538 59.868C155.815 61.2618 155.75 62.7018 155.35 64.0654L154.691 66.361V82.4037C154.69 82.5602 154.653 82.7145 154.582 82.854C154.511 82.9935 154.408 83.1144 154.281 83.207C152.227 84.7145 149.906 85.2475 147.65 85.2475C143.382 85.2475 139.348 83.3389 137.801 82.5108Z" fill="#6C63FF"/>
<path d="M125.138 79.5751L122.3 77.4536C122.189 77.3704 122.096 77.2646 122.029 77.1433C121.961 77.0219 121.92 76.8877 121.907 76.7493C121.895 76.6108 121.912 76.4714 121.957 76.3399C122.002 76.2085 122.074 76.088 122.169 75.9864L139.071 57.8507C139.613 57.2736 140.345 56.9102 141.133 56.8264C141.92 56.7427 142.712 56.9442 143.364 57.3943C143.761 57.6711 144.092 58.0322 144.334 58.4516C144.575 58.8711 144.722 59.3386 144.762 59.8211C144.802 60.3035 144.736 60.7889 144.567 61.2427C144.399 61.6965 144.132 62.1076 143.787 62.4467L126.423 79.489C126.271 79.6401 126.073 79.7372 125.86 79.7654C125.647 79.7935 125.431 79.7511 125.244 79.6448C125.207 79.6238 125.172 79.6006 125.138 79.5751Z" fill="#6C63FF"/>
<path d="M146.852 77.1738C146.976 76.8753 147.164 76.6076 147.403 76.3895C147.642 76.1715 147.925 76.0085 148.234 75.9119C148.542 75.8153 148.868 75.7875 149.189 75.8305C149.509 75.8735 149.816 75.9863 150.088 76.1608L156.264 71.3025L156.605 75.3716L150.688 79.3613C150.364 79.799 149.892 80.1029 149.359 80.2153C148.827 80.3277 148.271 80.2408 147.799 79.9712C147.326 79.7015 146.968 79.2678 146.794 78.7523C146.62 78.2367 146.64 77.6751 146.852 77.1738Z" fill="#FFB8B8"/>
<path d="M152.38 79.0704C152.217 79.0196 152.069 78.9269 151.953 78.8016C151.836 78.6763 151.754 78.5227 151.715 78.356L151.092 75.7357C151.046 75.5497 151.056 75.3543 151.12 75.1739C151.185 74.9936 151.301 74.8362 151.454 74.7215L155.652 70.1818L149.478 60.6613C149.01 60.0858 148.747 59.3717 148.729 58.6307C148.71 57.8896 148.938 57.1634 149.376 56.5655C149.725 56.0891 150.194 55.7135 150.736 55.4767C151.277 55.24 151.871 55.1505 152.458 55.2173C153.045 55.2842 153.604 55.5049 154.078 55.8573C154.552 56.2097 154.925 56.6811 155.158 57.2239L160.898 68.3969C161.469 69.5069 161.611 70.7881 161.298 71.9964C160.985 73.2046 160.238 74.2554 159.2 74.9486L153.334 78.8672C153.155 79.028 152.922 79.117 152.681 79.1172C152.579 79.1171 152.478 79.1013 152.38 79.0704Z" fill="#6C63FF"/>
<path d="M151.396 50.8524C151.268 50.9288 151.125 50.9749 150.977 50.987C150.829 50.9992 150.681 50.9772 150.543 50.9227C150.404 50.8681 150.281 50.7826 150.181 50.6726C150.081 50.5626 150.008 50.4311 149.968 50.2884L149.964 50.2749C149.854 49.8256 149.941 49.3552 149.97 48.8935C149.998 48.4317 149.95 47.9249 149.634 47.5871C149.044 46.9576 148.004 47.2986 147.155 47.1431C146.658 47.035 146.218 46.7495 145.916 46.34C145.615 45.9305 145.473 45.4251 145.517 44.9185C145.528 44.8225 145.547 44.7263 145.567 44.6302C145.619 44.3867 145.614 44.1345 145.551 43.8935C145.489 43.6524 145.372 43.4291 145.209 43.2409C145.046 43.0528 144.842 42.905 144.612 42.8092C144.382 42.7133 144.133 42.672 143.885 42.6885C143.029 42.7421 142.106 43.0065 141.394 42.376C141.133 42.1272 140.951 41.807 140.87 41.4554C140.79 41.1037 140.815 40.7363 140.942 40.3988C141.341 39.2288 142.481 38.6113 143.611 38.2691C145.008 37.8573 146.48 37.762 147.918 37.9902C149.357 38.2184 150.727 38.7643 151.928 39.5883C152.646 40.0883 153.317 40.7177 153.626 41.5358C153.935 42.3538 153.793 43.3887 153.109 43.9335C153.645 44.4944 154.023 45.1862 154.207 45.9396C154.391 46.693 154.374 47.4814 154.157 48.226C153.824 49.3211 152.21 50.3779 151.396 50.8524Z" fill="#2F2E41"/>
<path d="M185.312 125.78C185.312 125.838 185.288 125.894 185.247 125.936C185.206 125.977 185.15 126 185.092 126H101.312C101.253 126 101.197 125.977 101.156 125.936C101.115 125.894 101.092 125.839 101.092 125.78C101.092 125.722 101.115 125.666 101.156 125.625C101.197 125.583 101.253 125.56 101.312 125.56H185.092C185.15 125.56 185.206 125.584 185.247 125.625C185.288 125.666 185.312 125.722 185.312 125.78Z" fill="#3F3D56"/>
</g>
<defs>
<clipPath id="clip0_9546_1367">
<rect width="185.312" height="126" fill="white"/>
</clipPath>
</defs>
</svg>
