<svg width="87" height="94" viewBox="0 0 87 94" fill="none" xmlns="http://www.w3.org/2000/svg">
<path id="Vector" fill-rule="evenodd" clip-rule="evenodd" d="M40.9039 1.82692C40.9039 0.689402 41.6693 0 42.3999 0C43.1652 0 43.9306 0.723872 43.9306 1.82692V9.61716H71.9711C72.3538 9.61716 72.7364 9.96186 73.1191 9.96186L85.4695 22.5435C86.2348 22.8882 86.2348 24.0257 85.4695 24.3704L73.1191 36.952C72.7712 37.3656 72.3886 37.3656 71.9711 37.3656H43.9306V44.7422H72.7364C73.467 44.7422 74.2324 45.0869 74.2324 46.2244C74.2324 46.6381 74.2324 46.9828 73.8497 46.9828L62.2648 58.806L73.8497 69.9054C74.2324 70.6637 74.2324 71.3876 73.8497 72.1459C73.467 72.4906 73.1191 72.4906 72.7364 72.4906H43.9306V92.5178C43.9306 93.2072 43.2 94 42.3999 94C41.6693 94 40.9039 93.2417 40.9039 92.5178V72.4906H14.0115C13.6288 72.4906 13.2809 72.4906 12.8635 71.7668L0.547937 59.5644C-0.182646 59.2197 -0.182646 58.0821 0.547937 57.3238L13.2809 45.0869C13.2809 44.7422 14.0115 44.7422 14.0115 44.7422H40.9039V37.3656H13.2809C12.5156 37.3656 11.785 36.6073 11.785 36.2281C11.785 35.5042 12.1329 35.0906 12.5156 34.7459L23.7526 23.3018L12.5156 12.2024C11.785 11.4441 11.785 10.3066 12.5156 9.96186C12.5156 9.61716 12.8983 9.61716 13.2809 9.61716H40.9387V1.82692H40.9039Z" fill="#2BF6A8"/>
</svg>
