<svg version="1.2" xmlns="http://www.w3.org/2000/svg" viewBox="0 0 31 40" width="31" height="40">
	<title>icon-user-3-svg</title>
	<style>
		.s0 { fill: none } 
		.s1 { fill: none;stroke: #5a53f7;stroke-width: 2.5 } 
		.s2 { fill: #5a53f7 } 
	</style>
	<g id="Ellipse_45">
		<path id="Layer" class="s0" d="m15.5 19c-4.7 0-8.5-3.5-8.5-8 0-4.4 3.8-8 8.5-8 4.6 0 8.4 3.6 8.4 8 0 4.5-3.8 8-8.4 8z"/>
		<path id="Layer" class="s1" d="m15.5 18c-4.1 0-7.4-3.1-7.4-7 0-3.8 3.3-6.9 7.4-6.9 4 0 7.3 3.1 7.3 6.9 0 3.9-3.3 7-7.3 7z"/>
	</g>
	<g id="Path_121">
		<path id="Layer" fill-rule="evenodd" class="s0" d="m16 21.3l-0.6 0.1c1 0 12.8 0.7 12.8 14.4q0 0.3-0.2 0.7-0.1 0.3-0.4 0.5-0.2 0.3-0.6 0.4-0.3 0.2-0.6 0.2h-22.6q-0.4 0-0.7-0.2-0.3-0.1-0.6-0.4-0.2-0.2-0.4-0.5-0.1-0.4-0.1-0.7c0-11.5 9-14.4 12.9-14.4q0.1 0 0.3 0 0.1-0.1 0.2-0.1 0.2 0 0.3 0 0.1 0 0.3 0z"/>
		<path id="Layer" fill-rule="evenodd" class="s2" d="m16 21.3l-0.6 0.1c1 0 12.8 0.7 12.8 14.4 0 1-0.9 1.8-1.8 1.8h-22.6c-1 0-1.8-0.8-1.8-1.8 0-11.5 9-14.4 12.9-14.4 0.4-0.1 0.9-0.1 1.1-0.1zm-0.6 2.2q-0.1 0-0.2 0l-0.1 0.1h-0.2c-1.6 0-4.3 0.6-6.6 2.4-2.6 2.1-4 5.3-4.1 9.4h21.8c-0.1-4.7-1.8-8.1-5-10.1-2.7-1.7-5.6-1.7-5.6-1.7z"/>
	</g>
</svg>