<svg xmlns="http://www.w3.org/2000/svg" xmlns:xlink="http://www.w3.org/1999/xlink" width="34.019" height="39.686" viewBox="0 0 34.019 39.686">
  <defs>
    <clipPath id="clip">
      <use xlink:href="#fill"/>
    </clipPath>
    <clipPath id="clip-2">
      <use xlink:href="#fill-2"/>
    </clipPath>
    <clipPath id="clip-3">
      <use xlink:href="#fill-3"/>
    </clipPath>
    <clipPath id="clip-4">
      <use xlink:href="#fill-4"/>
    </clipPath>
    <clipPath id="clip-5">
      <use xlink:href="#fill-5"/>
    </clipPath>
  </defs>
  <g id="Group_459" data-name="Group 459" transform="translate(-927.656 -142.856)">
    <g id="Rectangle_330" data-name="Rectangle 330" transform="translate(933.842 173.324)" fill="#fff" stroke="#645cf3" stroke-width="4">
      <rect id="fill" width="20.556" height="2.164" rx="1.082" stroke="none"/>
      <path d="M0,0.16380810737609863h20.55617904663086M18.55617904663086,0v2.1638081073760986M20.55617904663086,2h-20.55617904663086M2,2.1638081073760986v-2.1638081073760986" fill="none" clip-path="url(#clip)"/>
    </g>
    <g id="Rectangle_331" data-name="Rectangle 331" transform="translate(933.842 167.915)" fill="#fff" stroke="#645cf3" stroke-width="4">
      <rect id="fill-2" width="20.556" height="2.164" rx="1.082" stroke="none"/>
      <path d="M0,0.16380810737609863h20.55617904663086M18.55617904663086,0v2.1638081073760986M20.55617904663086,2h-20.55617904663086M2,2.1638081073760986v-2.1638081073760986" fill="none" clip-path="url(#clip-2)"/>
    </g>
    <g id="Rectangle_332" data-name="Rectangle 332" transform="translate(933.842 162.505)" fill="#fff" stroke="#645cf3" stroke-width="4">
      <rect id="fill-3" width="20.556" height="2.164" rx="1.082" stroke="none"/>
      <path d="M0,0.16380810737609863h20.55617904663086M18.55617904663086,0v2.1638081073760986M20.55617904663086,2h-20.55617904663086M2,2.1638081073760986v-2.1638081073760986" fill="none" clip-path="url(#clip-3)"/>
    </g>
    <g id="Path_140" data-name="Path 140" transform="translate(961.675 142.856) rotate(90)" fill="none">
      <path d="M12.065,0H36.851a2.835,2.835,0,0,1,2.835,2.835V31.185a2.835,2.835,0,0,1-2.835,2.835H2.835A2.835,2.835,0,0,1,0,31.185V11.66C0,10.094,12.5-.194,12.065,0Z" stroke="none"/>
      <path d="M 13.04599952697754 2.50279426574707 C 12.75394630432129 2.757946014404297 12.38244819641113 3.07945442199707 11.96502876281738 3.440694808959961 C 10.46073722839355 4.742555618286133 8.187427520751953 6.709945678710938 6.184497833251953 8.552665710449219 C 3.769344329833984 10.77463340759277 2.845195770263672 11.80793380737305 2.5 12.24417877197266 L 2.5 31.18472480773926 C 2.5 31.36929512023926 2.650146484375 31.51944541931152 2.834716796875 31.51944541931152 L 36.85137939453125 31.51944541931152 C 37.03594970703125 31.51944541931152 37.18609619140625 31.36929512023926 37.18609619140625 31.18472480773926 L 37.18609619140625 2.837514877319336 C 37.18609619140625 2.652944564819336 37.03594970703125 2.50279426574707 36.85137939453125 2.50279426574707 L 13.04599952697754 2.50279426574707 M 12.07397842407227 3.814697265625e-06 C 12.0757884979248 1.1444091796875e-05 12.07644844055176 0.000934600830078125 12.07597923278809 0.002796173095703125 L 12.06509780883789 0.002796173095703125 C 12.0692310333252 0.000919342041015625 12.07216835021973 -7.62939453125e-06 12.07397842407227 3.814697265625e-06 Z M 12.07597923278809 0.002796173095703125 L 36.85137939453125 0.002796173095703125 C 38.41694641113281 0.002796173095703125 39.68609619140625 1.271945953369141 39.68609619140625 2.837514877319336 L 39.68609619140625 31.18472480773926 C 39.68609619140625 32.75030517578125 38.41694641113281 34.01944351196289 36.85137939453125 34.01944351196289 L 2.834716796875 34.01944351196289 C 1.269149780273438 34.01944351196289 0 32.75030517578125 0 31.18472480773926 L 0 11.65957450866699 C 0 10.12380790710449 12.02771759033203 0.1944389343261719 12.07597923278809 0.002796173095703125 Z" stroke="none" fill="#645cf3"/>
    </g>
    <g id="Group_455" data-name="Group 455" transform="translate(946.825 148.44)">
      <g id="Rectangle_274" data-name="Rectangle 274" transform="translate(2.164 0) rotate(90)" fill="#fff" stroke="#645cf3" stroke-width="4">
        <rect id="fill-4" width="10.819" height="2.164" rx="1.082" stroke="none"/>
        <path d="M0,0.16380810737609863h10.81904125213623M8.81904125213623,0v2.1638081073760986M10.81904125213623,2h-10.81904125213623M2,2.1638081073760986v-2.1638081073760986" fill="none" clip-path="url(#clip-4)"/>
      </g>
      <g id="Rectangle_275" data-name="Rectangle 275" transform="translate(9.737 10.819) rotate(180)" fill="#fff" stroke="#645cf3" stroke-width="4">
        <rect id="fill-5" width="9.737" height="2.164" rx="1.082" stroke="none"/>
        <path d="M0,0.16380810737609863h9.737137794494629M7.737137794494629,0v2.1638081073760986M9.737137794494629,2h-9.737137794494629M2,2.1638081073760986v-2.1638081073760986" fill="none" clip-path="url(#clip-5)"/>
      </g>
    </g>
  </g>
</svg>
