<svg version="1.2" xmlns="http://www.w3.org/2000/svg" viewBox="0 0 72 51" width="72" height="51">
	<title>icon-internet-svg</title>
	<style>
		.s0 { fill: #ffffff } 
		.s1 { fill: none;stroke: #645cf3;stroke-width: 2.5 } 
		.s2 { fill: #645cf3 } 
	</style>
	<g id="Rectangle_277">
		<path id="Layer" class="s0" d="m9.9 4.5c0-1.6 1.3-3 3-3h47.4c1.6 0 3 1.4 3 3v27.4c0 1.6-1.4 3-3 3h-47.4c-1.7 0-3-1.4-3-3z"/>
		<path id="Layer" class="s1" d="m11.4 4.8c0-1 0.8-1.8 1.7-1.8h46.9c1 0 1.8 0.8 1.8 1.8v26.8c0 1-0.8 1.8-1.8 1.8h-46.9c-0.9 0-1.7-0.8-1.7-1.8z"/>
	</g>
	<g id="Path_126">
		<path id="Layer" class="s0" d="m67.6 47.4h-62.6c-1.4 0-2.5-0.9-2.8-2.1 4.3-3 6.9-4.7 8.5-5.6 1.3-0.7 1.7-0.7 2.8-0.7h46.3c0.9 0 1.6 0.1 3.1 1 1.5 0.9 3.7 2.5 7.5 5.2-0.3 1.3-1.4 2.2-2.8 2.2z"/>
		<path id="Layer" fill-rule="evenodd" class="s2" d="m13.5 37.6h46.3c2.4 0 3.7 0.6 12.2 7 0 2.4-2 4.3-4.4 4.3h-62.6c-2.4 0-4.4-1.9-4.4-4.3 10.1-7 10.5-7 12.9-7zm0 2.9c-1 0-1.1 0-2.1 0.6-1.4 0.7-3.7 2.2-7.2 4.6q0.3 0.2 0.8 0.2h62.6q0.5 0 0.9-0.2c-3.1-2.3-5.1-3.7-6.4-4.4-1.2-0.8-1.7-0.8-2.3-0.8z"/>
	</g>
</svg>